<?xml version="1.0" standalone="no"?>
<!DOCTYPE svg PUBLIC "-//W3C//DTD SVG 20010904//EN"
 "http://www.w3.org/TR/2001/REC-SVG-20010904/DTD/svg10.dtd">
<svg version="1.0" xmlns="http://www.w3.org/2000/svg"
 width="16.000000pt" height="16.000000pt" viewBox="0 0 16.000000 16.000000"
 preserveAspectRatio="xMidYMid meet">
<metadata>
Created by potrace 1.11, written by Peter Selinger 2001-2013
</metadata>
<g transform="translate(0.000000,16.000000) scale(0.001042,-0.001042)"
fill="#000000" stroke="none">
<path d="M6131 14949 c-5 -13 -62 -145 -126 -294 -65 -148 -182 -418 -260
-600 -208 -481 -345 -796 -360 -830 -7 -16 -43 -97 -78 -180 -266 -615 -463
-1068 -483 -1113 -13 -29 -24 -55 -24 -57 0 -2 -11 -28 -24 -57 -13 -29 -68
-154 -121 -278 -96 -222 -124 -286 -150 -345 -7 -16 -41 -95 -75 -175 -35 -80
-73 -167 -85 -195 -13 -27 -35 -79 -50 -115 -25 -61 -210 -488 -240 -555 -7
-16 -59 -136 -115 -265 -56 -129 -109 -251 -117 -270 -19 -43 -9 -21 -187
-435 -81 -187 -150 -347 -155 -355 -4 -8 -40 -91 -80 -183 -40 -93 -83 -193
-96 -222 -14 -30 -25 -56 -25 -59 0 -3 -13 -33 -29 -68 -16 -35 -50 -110 -74
-168 -44 -103 -164 -381 -195 -450 -9 -19 -16 -37 -17 -40 -1 -3 -8 -21 -17
-40 -17 -39 -80 -184 -288 -665 -78 -181 -151 -348 -161 -370 -10 -22 -63
-146 -119 -275 -56 -129 -108 -248 -115 -265 -8 -16 -73 -167 -145 -335 -72
-168 -138 -321 -147 -340 -8 -19 -21 -48 -29 -65 -44 -99 -386 -892 -409 -945
-15 -36 -35 -83 -45 -105 -25 -54 -42 -94 -150 -345 -51 -118 -105 -243 -121
-278 -16 -35 -29 -66 -29 -70 -1 -4 -9 -25 -19 -47 l-19 -40 194 -193 193
-194 30 21 c16 12 32 21 37 21 4 0 854 423 1889 941 l1881 941 99 226 c54 125
123 283 152 352 30 69 61 139 68 155 64 146 259 592 373 855 27 63 59 135 70
160 11 25 72 164 135 310 118 272 387 891 412 945 7 17 75 172 150 345 75 173
145 333 155 355 16 35 284 652 539 1240 50 116 98 224 106 240 8 17 60 136
115 265 55 129 107 246 114 260 37 69 39 96 12 155 -14 30 -26 58 -26 60 0 3
-8 24 -19 48 -10 23 -31 71 -46 107 -15 36 -33 79 -40 95 -7 17 -36 86 -65
155 -28 69 -57 139 -65 155 -7 17 -36 86 -65 155 -29 69 -58 139 -66 157 -8
17 -14 34 -14 37 0 3 -13 33 -29 68 -16 35 -45 104 -66 153 -20 50 -43 104
-50 120 -8 17 -37 86 -65 155 -28 69 -56 134 -61 145 -44 100 -89 211 -89 221
0 7 -3 14 -7 16 -5 2 -16 23 -25 48 -9 25 -37 92 -61 150 -25 58 -79 188 -122
290 -42 102 -83 199 -91 215 -14 32 -271 642 -309 735 -33 80 -234 560 -250
595 -8 17 -28 66 -46 110 -18 44 -39 91 -45 104 l-13 25 -10 -25z"/>
<path d="M9193 12233 c-12 -27 -45 -102 -73 -168 -61 -141 -59 -138 -105 -239
-19 -43 -35 -85 -35 -92 0 -8 -4 -14 -10 -14 -5 0 -10 -5 -10 -11 0 -9 -256
-608 -331 -774 -9 -22 -41 -94 -69 -160 -51 -118 -66 -152 -94 -218 -8 -17
-24 -55 -36 -82 -12 -27 -27 -63 -35 -80 -7 -16 -35 -79 -60 -140 -26 -60 -55
-128 -65 -150 -10 -22 -61 -139 -113 -260 -256 -593 -520 -1204 -537 -1240
-22 -49 -32 -72 -111 -255 -34 -80 -70 -163 -80 -185 -9 -22 -54 -125 -99
-230 -45 -104 -92 -212 -105 -240 -12 -27 -39 -90 -60 -140 -21 -49 -53 -123
-71 -163 -19 -41 -34 -75 -34 -77 0 -3 -214 -498 -255 -590 -20 -44 -111 -254
-162 -375 -24 -58 -53 -123 -63 -145 -10 -22 -39 -89 -65 -150 -63 -147 -60
-139 -100 -229 -19 -43 -35 -85 -35 -92 0 -8 -4 -14 -10 -14 -5 0 -10 -6 -10
-13 0 -11 -47 -124 -115 -272 -12 -27 -26 -61 -30 -75 -4 -14 -11 -29 -15 -35
-4 -5 -40 -86 -80 -180 -40 -93 -80 -188 -90 -210 -10 -22 -48 -110 -84 -195
-37 -85 -71 -163 -76 -172 -6 -10 -10 -25 -10 -33 0 -8 -4 -15 -10 -15 -5 0
-10 -5 -10 -11 0 -11 -197 -472 -270 -634 -19 -41 -343 -791 -350 -810 -4 -11
-19 -45 -33 -75 -14 -30 -53 -120 -87 -200 -34 -80 -68 -160 -76 -177 -61
-134 -197 -452 -201 -470 -3 -13 -9 -23 -14 -23 -5 0 -9 -5 -9 -11 0 -10 -201
-483 -266 -626 -13 -28 -24 -54 -24 -57 0 -3 -11 -29 -25 -58 -62 -135 -185
-423 -185 -435 0 -7 -3 -13 -8 -13 -4 0 -12 -15 -19 -32 -6 -18 -19 -53 -28
-78 l-17 -45 188 -190 189 -190 2306 1151 2305 1152 2298 -1149 c1264 -632
2302 -1149 2307 -1149 5 0 95 86 199 190 159 159 188 193 180 208 -5 9 -69
154 -141 322 -164 380 -191 444 -216 500 -11 25 -42 95 -67 155 -26 61 -54
125 -62 143 -33 75 -46 104 -107 247 -164 381 -231 533 -248 569 -11 22 -19
43 -19 47 0 4 -15 40 -34 81 -18 40 -46 102 -61 138 -15 36 -35 83 -45 105
-25 57 -155 357 -325 750 -152 353 -160 370 -193 445 -18 40 -74 170 -234 540
-27 63 -56 130 -64 148 -8 17 -21 49 -30 70 -9 20 -25 55 -35 76 -11 22 -19
43 -19 47 0 5 -20 52 -45 105 -25 53 -45 99 -45 103 0 5 -6 21 -14 37 -14 27
-58 129 -318 729 -54 127 -112 259 -128 295 -29 68 -92 213 -115 265 -7 17
-20 46 -28 65 -9 19 -37 85 -63 145 -25 61 -54 128 -64 150 -10 22 -41 94 -70
160 -28 66 -60 138 -70 160 -10 22 -59 137 -110 255 -51 118 -100 233 -110
255 -10 22 -47 108 -83 190 -35 83 -131 303 -212 490 -81 187 -199 459 -262
605 -63 146 -120 279 -128 295 -7 17 -49 113 -93 215 -44 102 -119 275 -167
385 -48 110 -100 229 -115 265 -32 75 -255 591 -275 635 -7 17 -30 68 -50 115
-20 47 -42 99 -49 115 -7 17 -18 41 -24 55 -6 14 -24 55 -41 93 -17 37 -31 69
-31 72 0 2 -12 30 -26 62 -42 94 -100 227 -201 463 -25 58 -56 130 -70 160
-14 30 -34 78 -45 105 -11 28 -23 53 -27 58 -4 4 -17 -14 -28 -40z"/>
</g>
</svg>
